<svg width="70" height="49" viewBox="0 0 70 49" fill="none" xmlns="http://www.w3.org/2000/svg">
<rect x="0.448461" y="1.13254" width="68.6897" height="47.1724" rx="2.89655" fill="white" stroke="#F3F3F3" stroke-width="0.827586"/>
<path fill-rule="evenodd" clip-rule="evenodd" d="M21.1026 18.6307C20.597 19.2364 19.7879 19.7141 18.9789 19.6459C18.8778 18.8269 19.2739 17.9568 19.7374 17.4193C20.243 16.7966 21.1279 16.353 21.8442 16.3188C21.9285 17.1719 21.5999 18.0079 21.1026 18.6307ZM21.8356 19.8079C21.1228 19.7663 20.4725 20.0248 19.9472 20.2336C19.6091 20.368 19.3229 20.4818 19.1051 20.4818C18.8607 20.4818 18.5626 20.3619 18.2279 20.2273C17.7894 20.051 17.288 19.8494 16.7623 19.859C15.5571 19.8761 14.4363 20.5671 13.8211 21.6676C12.557 23.8685 13.4924 27.1273 14.7144 28.9188C15.3127 29.806 16.0291 30.7785 16.9729 30.7443C17.3882 30.7285 17.6869 30.6002 17.996 30.4674C18.3519 30.3145 18.7216 30.1557 19.2989 30.1557C19.8562 30.1557 20.2097 30.3104 20.5491 30.4589C20.8718 30.6 21.1817 30.7356 21.6418 30.7273C22.6193 30.7102 23.2346 29.8401 23.8329 28.9529C24.4786 28.0007 24.7624 27.0714 24.8054 26.9303L24.8105 26.914C24.8095 26.913 24.8015 26.9093 24.7874 26.9027C24.5716 26.8027 22.9217 26.0382 22.9059 23.9879C22.89 22.2671 24.2145 21.3952 24.423 21.2579L24.423 21.2579L24.4231 21.2579C24.4358 21.2496 24.4443 21.244 24.4481 21.241C23.6054 19.9785 22.2907 19.842 21.8356 19.8079ZM28.603 30.6337V17.3342H33.533C36.0781 17.3342 37.8563 19.1086 37.8563 21.702C37.8563 24.2953 36.0444 26.0868 33.4656 26.0868H30.6424V30.6337H28.603ZM30.6424 19.0746H32.9936C34.7634 19.0746 35.7747 20.03 35.7747 21.7106C35.7747 23.3912 34.7634 24.3552 32.9852 24.3552H30.6424V19.0746ZM44.5897 29.0384C44.0503 30.0791 42.862 30.736 41.581 30.736C39.6849 30.736 38.3618 29.5929 38.3618 27.8696C38.3618 26.1635 39.6427 25.1824 42.0108 25.0374L44.5559 24.8838V24.1502C44.5559 23.0668 43.8565 22.4782 42.6092 22.4782C41.581 22.4782 40.831 23.0156 40.6793 23.8346H38.8421C38.9011 22.1113 40.5023 20.8573 42.6682 20.8573C45.0026 20.8573 46.5195 22.0943 46.5195 24.0137V30.6336H44.6318V29.0384H44.5897ZM42.1289 29.1578C41.0417 29.1578 40.3507 28.6289 40.3507 27.8184C40.3507 26.9824 41.0165 26.4962 42.289 26.4194L44.556 26.2744V27.0251C44.556 28.2706 43.511 29.1578 42.1289 29.1578ZM52.7811 31.1541C51.9637 33.483 51.0282 34.2508 49.0393 34.2508C48.8876 34.2508 48.382 34.2337 48.264 34.1996V32.6043C48.3904 32.6214 48.7022 32.6385 48.8623 32.6385C49.7641 32.6385 50.2697 32.2546 50.5815 31.2565L50.767 30.6678L47.3117 20.9854H49.4438L51.8457 28.8423H51.8878L54.2896 20.9854H56.3628L52.7811 31.1541Z" fill="black"/>
</svg>