<svg width="52.059326" height="43.182434" viewBox="0 0 52.0593 43.1824" fill="none" xmlns="http://www.w3.org/2000/svg" xmlns:xlink="http://www.w3.org/1999/xlink">
	<desc>
			Created with Pixso.
	</desc>
	<defs/>
	<path id="Vector" d="M1.38 0.12C1.33 0.14 1.3 0.18 1.29 0.23C1.1 0.29 0.91 0.03 0.72 0.24C0.11 0.38 0.02 0.84 0 1.35C-0.04 2.79 0.15 4.2 0.44 5.6C1.45 10.62 3.46 15.2 6.3 19.46C11.26 26.91 18.12 31.84 26.38 34.95C30.21 36.4 34.22 37.15 38.27 37.71C40.65 38.04 43.04 38.22 45.42 38.47C45.51 38.44 45.6 38.41 45.69 38.38C45.78 38.43 45.9 38.47 45.95 38.54C45.95 38.54 45.95 38.54 45.95 38.55C45.99 38.61 45.9 38.67 45.82 38.66C45.02 39.15 44.13 39.45 43.24 39.71C42.62 39.89 42.04 40.11 41.53 40.5C40.21 40.87 39.6 41.78 39.78 43.02C42.47 43.55 44.88 42.67 47.25 41.57C48.13 41.16 49.03 40.82 49.93 40.46C52.09 39.59 51.73 39.6 52.02 37.73C52.08 37.31 52.05 36.88 51.98 36.46C51.95 36.31 51.91 36.17 51.77 36.08C51.81 35.6 51.47 35.38 51.13 35.18C50.12 34.59 49.1 34.01 48.07 33.43C47.94 33.19 47.7 33.08 47.45 32.99C47.33 32.74 47.09 32.64 46.85 32.53C46.79 32.34 46.6 32.28 46.47 32.16C44.63 30.61 43 28.87 41.66 26.85C41.56 26.7 41.45 26.56 41.34 26.41C41.22 26.23 41.08 26.03 40.84 26.11C40.66 26.16 40.55 26.4 40.58 26.56C40.69 27.25 40.37 27.9 40.42 28.58C40.44 28.89 40.59 29.15 40.74 29.42C41.9 31.51 43.39 33.34 45.08 35.01C45.23 35.16 45.41 35.29 45.52 35.47C45.66 35.67 45.5 35.8 45.32 35.88C45.13 35.72 44.94 35.71 44.73 35.83C44.53 35.73 44.33 35.64 44.11 35.78C44.08 35.72 44.04 35.72 43.99 35.76C43.8 35.65 43.61 35.58 43.4 35.7C43.26 35.65 43.12 35.59 42.97 35.57C41.36 35.36 39.74 35.16 38.13 34.93C36.66 34.72 35.2 34.46 33.74 34.22C33.37 34.11 32.99 33.98 32.62 33.89C28.93 32.95 25.41 31.58 22.1 29.68C20.92 29 19.76 28.29 18.59 27.6C18.45 27.33 18.2 27.24 17.94 27.14C17.82 26.89 17.57 26.8 17.33 26.7C17.23 26.45 16.99 26.38 16.78 26.27C16.72 26.1 16.59 26.03 16.43 25.99C16.4 25.93 16.36 25.9 16.29 25.9C16.23 25.71 16.04 25.65 15.91 25.53C15.27 24.95 14.52 24.48 13.94 23.82C13.84 23.84 13.61 23.74 13.8 24.01C13.93 24.19 13.91 24.25 13.83 24.26C13.77 24.27 13.66 24.25 13.58 24.24C11.6 22.34 9.87 20.21 8.27 17.98C8.15 17.76 8.02 17.53 7.89 17.31C7.12 15.99 6.35 14.67 5.58 13.35C5.59 13.29 5.58 13.23 5.55 13.19C5.53 13.16 5.5 13.13 5.47 13.11C5.48 13.01 5.44 12.93 5.35 12.88C5.37 12.78 5.33 12.7 5.24 12.65C5.26 12.55 5.22 12.47 5.13 12.42C5.15 12.31 5.11 12.23 5.02 12.18C5.04 12.08 5.01 12 4.91 11.95L4.91 11.94C4.93 11.84 4.9 11.76 4.81 11.72L4.81 11.71C4.78 11.63 4.74 11.56 4.71 11.48L4.7 11.47C4.73 11.37 4.7 11.29 4.6 11.24L4.6 11.23C4.62 11.13 4.59 11.05 4.5 11L4.5 10.99C4.53 10.89 4.49 10.81 4.4 10.76L4.4 10.76C4.42 10.65 4.39 10.58 4.3 10.52L4.3 10.52C4.32 10.42 4.29 10.34 4.2 10.28C3.95 9.53 3.69 8.78 3.44 8.03C3.18 7.68 3.12 7.25 3.01 6.85C3.04 6.82 3.08 6.8 3.12 6.78C3.18 6.76 3.25 6.76 3.32 6.78C3.27 6.47 3.24 6.15 3.04 5.88C2.98 5.81 2.92 5.73 2.91 5.62C2.95 5.71 3 5.8 3.04 5.88C3.05 5.78 3.04 5.68 2.93 5.64C2.99 5.49 2.96 5.36 2.87 5.23C2.91 5.14 2.9 5.05 2.81 4.99C2.82 4.89 2.81 4.79 2.72 4.72C2.74 4.67 2.74 4.62 2.7 4.58C2.7 4.26 2.64 3.97 2.5 3.68C2.49 3.46 2.49 3.24 2.36 3.05C2.41 2.9 2.35 2.78 2.3 2.65C2.26 1.77 2.06 0.92 2.19 0C1.87 0.1 1.6 -0.13 1.38 0.12ZM43.92 35.93C43.92 35.93 43.92 35.93 43.92 35.92C43.92 35.93 43.92 35.93 43.92 35.93C43.92 35.93 43.92 35.92 43.92 35.92L43.92 35.92C43.92 35.92 43.92 35.92 43.92 35.92C43.92 35.92 43.92 35.92 43.92 35.93ZM3.95 11C3.96 11.02 3.96 11.04 3.97 11.06C3.96 11.05 3.96 11.05 3.96 11.04C3.95 11.03 3.94 11.01 3.94 10.99C3.94 11 3.95 11 3.95 11ZM5.57 13.34C5.57 13.34 5.56 13.34 5.56 13.35C5.56 13.35 5.55 13.35 5.54 13.35L5.52 13.36L5.56 13.34C5.57 13.34 5.57 13.34 5.57 13.34C5.57 13.34 5.57 13.34 5.57 13.34ZM3.86 10.98C3.89 10.98 3.91 10.99 3.93 10.99C3.94 11.01 3.95 11.03 3.95 11.04C3.93 11.01 3.9 10.99 3.86 10.98ZM4 11.15C4 11.17 4.01 11.19 4.02 11.21C4.02 11.21 4.02 11.21 4.02 11.21C4.01 11.19 4 11.17 4 11.15ZM0.93 1.7C0.92 1.7 0.92 1.7 0.92 1.7L0.92 1.69C0.92 1.69 0.92 1.69 0.92 1.69C0.93 1.69 0.92 1.7 0.93 1.7ZM0.95 2.09C0.94 2.09 0.94 2.1 0.94 2.1C0.95 2.1 0.94 2.09 0.95 2.09ZM2.78 5.52C2.76 5.52 2.74 5.52 2.72 5.52C2.73 5.51 2.73 5.5 2.74 5.49C2.75 5.5 2.77 5.51 2.78 5.52ZM2.7 4.84C2.69 4.81 2.69 4.78 2.7 4.74C2.7 4.74 2.7 4.74 2.7 4.74C2.69 4.78 2.69 4.81 2.7 4.84Z" fill="#749B3F" fill-opacity="1.000000" fill-rule="evenodd"/>
</svg>
