<svg width="225" height="39" viewBox="0 0 225 39" fill="none" xmlns="http://www.w3.org/2000/svg">
<path d="M19.9062 10.3593C19.9062 15.4076 15.8139 19.5 10.7656 19.5H1.625V10.3593C1.625 5.3111 5.71739 1.21871 10.7656 1.21871C15.8139 1.21871 19.9062 5.3111 19.9062 10.3593Z" fill="#749B3F"/>
<path d="M19.906 28.6407C19.906 23.5925 23.9984 19.5001 29.0466 19.5001H38.1873V28.6407C38.1873 33.6889 34.0949 37.7813 29.0466 37.7813C23.9984 37.7813 19.906 33.6889 19.906 28.6407Z" fill="#749B3F"/>
<path d="M1.625 28.6407C1.625 33.6889 5.71739 37.7813 10.7656 37.7813H19.9062V28.6407C19.9062 23.5925 15.8139 19.5001 10.7656 19.5001C5.71739 19.5001 1.625 23.5925 1.625 28.6407Z" fill="#749B3F"/>
<path d="M38.1873 10.3593C38.1873 5.3111 34.0949 1.21871 29.0466 1.21871H19.906V10.3593C19.906 15.4076 23.9984 19.5 29.0466 19.5C34.0949 19.5 38.1873 15.4076 38.1873 10.3593Z" fill="#749B3F"/>
<path d="M50.1795 28.1892C49.9984 28.1892 49.8503 28.1312 49.7351 28.0154C49.6199 27.8995 49.5623 27.7506 49.5623 27.5685V11.4314C49.5623 11.2493 49.6199 11.1003 49.7351 10.9845C49.8503 10.8686 49.9984 10.8107 50.1795 10.8107H61.1906C61.3716 10.8107 61.5198 10.8686 61.635 10.9845C61.7502 11.1003 61.8078 11.2493 61.8078 11.4314V13.5416C61.8078 13.7237 61.7502 13.8726 61.635 13.9885C61.5198 14.1043 61.3716 14.1623 61.1906 14.1623H53.4137V18.3579H60.6968C60.8779 18.3579 61.026 18.4159 61.1412 18.5317C61.2564 18.6476 61.314 18.7965 61.314 18.9786V21.0888C61.314 21.2543 61.2564 21.395 61.1412 21.5109C61.026 21.6267 60.8779 21.6847 60.6968 21.6847H53.4137V27.5685C53.4137 27.7506 53.3561 27.8995 53.2409 28.0154C53.1256 28.1312 52.9775 28.1892 52.7965 28.1892H50.1795Z" fill="#212337"/>
<path d="M64.1929 28.1892C64.0283 28.1892 63.8884 28.1312 63.7732 28.0154C63.658 27.8995 63.6004 27.7506 63.6004 27.5685V15.9001C63.6004 15.7346 63.658 15.5939 63.7732 15.4781C63.8884 15.3457 64.0283 15.2795 64.1929 15.2795H66.6124C66.777 15.2795 66.9169 15.3457 67.0321 15.4781C67.1638 15.5939 67.2296 15.7346 67.2296 15.9001V16.8932C67.6411 16.3801 68.1431 15.9829 68.7356 15.7015C69.3446 15.4201 70.0441 15.2795 70.8342 15.2795H71.8958C72.0604 15.2795 72.2003 15.3374 72.3155 15.4532C72.4307 15.5691 72.4883 15.7181 72.4883 15.9001V18.0352C72.4883 18.2172 72.4307 18.3662 72.3155 18.4821C72.2003 18.5979 72.0604 18.6558 71.8958 18.6558H69.7232C68.999 18.6558 68.4311 18.8627 68.0197 19.2765C67.6082 19.6737 67.4025 20.2447 67.4025 20.9895V27.5685C67.4025 27.7506 67.3448 27.8995 67.2296 28.0154C67.1144 28.1312 66.9663 28.1892 66.7852 28.1892H64.1929Z" fill="#212337"/>
<path d="M79.4187 28.4374C77.5259 28.4374 76.0199 27.9078 74.9006 26.8485C73.7979 25.7893 73.2136 24.2501 73.1478 22.2308C73.1478 22.0984 73.1478 21.9246 73.1478 21.7095C73.1478 21.4778 73.1478 21.2957 73.1478 21.1633C73.2136 19.8889 73.5016 18.7965 74.0119 17.8862C74.5221 16.9594 75.2381 16.256 76.1598 15.776C77.0815 15.2795 78.1595 15.0312 79.394 15.0312C80.7765 15.0312 81.9287 15.3208 82.8504 15.9001C83.7885 16.4628 84.488 17.2407 84.9489 18.2338C85.4262 19.2103 85.6649 20.3358 85.6649 21.6102V22.1812C85.6649 22.3467 85.599 22.4874 85.4674 22.6032C85.3521 22.7191 85.2122 22.777 85.0477 22.777H76.9745C76.9745 22.7936 76.9745 22.8267 76.9745 22.8763C76.9745 22.9094 76.9745 22.9425 76.9745 22.9756C76.9909 23.5053 77.0897 23.9935 77.2708 24.4404C77.4683 24.8707 77.7398 25.2183 78.0855 25.4831C78.4476 25.7479 78.8755 25.8803 79.3693 25.8803C79.7808 25.8803 80.1182 25.8224 80.3815 25.7065C80.6449 25.5907 80.8588 25.45 81.0234 25.2845C81.2045 25.119 81.3361 24.9783 81.4184 24.8624C81.5666 24.6969 81.6818 24.5976 81.7641 24.5645C81.8628 24.5149 82.011 24.49 82.2085 24.49H84.7761C84.9407 24.49 85.0723 24.5397 85.1711 24.639C85.2863 24.7218 85.3357 24.8459 85.3192 25.0114C85.3028 25.2762 85.1629 25.6072 84.8995 26.0045C84.6526 26.3851 84.2823 26.7658 83.7885 27.1465C83.2948 27.5106 82.6776 27.8168 81.9369 28.065C81.2127 28.3133 80.3733 28.4374 79.4187 28.4374ZM76.9745 20.5178H81.8134V20.4682C81.8134 19.8723 81.7147 19.3593 81.5172 18.9289C81.3361 18.4821 81.0646 18.1345 80.7025 17.8862C80.3404 17.638 79.9042 17.5138 79.394 17.5138C78.8837 17.5138 78.4476 17.638 78.0855 17.8862C77.7234 18.1345 77.4436 18.4821 77.2461 18.9289C77.065 19.3593 76.9745 19.8723 76.9745 20.4682V20.5178Z" fill="#212337"/>
<path d="M92.7001 28.4374C91.6797 28.4374 90.7991 28.3216 90.0585 28.0899C89.3343 27.8416 88.7417 27.5437 88.2809 27.1961C87.8365 26.8486 87.4991 26.501 87.2687 26.1534C87.0547 25.7893 86.9395 25.4831 86.923 25.2348C86.9066 25.0528 86.9642 24.9038 87.0958 24.788C87.2275 24.6721 87.3592 24.6142 87.4909 24.6142H89.8857C89.935 24.6142 89.9844 24.6224 90.0338 24.639C90.0832 24.6556 90.1325 24.6969 90.1819 24.7631C90.3959 24.9121 90.6181 25.0859 90.8485 25.2845C91.0789 25.4665 91.3423 25.6238 91.6385 25.7562C91.9513 25.8886 92.338 25.9548 92.7989 25.9548C93.342 25.9548 93.8029 25.8472 94.1815 25.6321C94.56 25.4003 94.7493 25.0776 94.7493 24.6638C94.7493 24.3659 94.6588 24.1176 94.4777 23.919C94.3131 23.7204 93.9922 23.5384 93.5149 23.3729C93.0376 23.2073 92.3298 23.0253 91.3917 22.8267C90.5029 22.6281 89.7457 22.3632 89.1203 22.0322C88.4949 21.7012 88.0258 21.2874 87.7131 20.7909C87.4003 20.2778 87.244 19.6654 87.244 18.9538C87.244 18.3083 87.4415 17.6876 87.8365 17.0918C88.248 16.4959 88.8487 16.0077 89.6388 15.627C90.4288 15.2298 91.4163 15.0312 92.6014 15.0312C93.5066 15.0312 94.2967 15.147 94.9715 15.3788C95.6628 15.5939 96.2388 15.8753 96.6997 16.2229C97.1605 16.5539 97.5062 16.9014 97.7366 17.2656C97.9835 17.6131 98.1152 17.9193 98.1316 18.1841C98.1481 18.3496 98.0987 18.4903 97.9835 18.6062C97.8683 18.722 97.7366 18.78 97.5885 18.78H95.3912C95.3089 18.78 95.2348 18.7717 95.169 18.7551C95.1032 18.722 95.0456 18.6807 94.9962 18.631C94.7987 18.4986 94.5929 18.3496 94.379 18.1841C94.1815 18.0021 93.9428 17.8448 93.663 17.7124C93.3832 17.58 93.0211 17.5138 92.5767 17.5138C92.0336 17.5138 91.6139 17.638 91.3176 17.8862C91.0378 18.1179 90.8979 18.4159 90.8979 18.78C90.8979 19.0117 90.972 19.2268 91.1201 19.4255C91.2682 19.6241 91.5727 19.8061 92.0336 19.9716C92.4944 20.1371 93.1939 20.3109 94.1321 20.493C95.2513 20.6916 96.1401 20.9895 96.7985 21.3867C97.4568 21.784 97.9259 22.2474 98.2057 22.777C98.502 23.2901 98.6501 23.8446 98.6501 24.4404C98.6501 25.2183 98.4197 25.9134 97.9588 26.5258C97.498 27.1216 96.8231 27.5933 95.9344 27.9409C95.062 28.2719 93.984 28.4374 92.7001 28.4374Z" fill="#212337"/>
<path d="M101.143 28.1892C100.962 28.1892 100.814 28.1312 100.699 28.0154C100.584 27.8995 100.526 27.7506 100.526 27.5685V11.1831C100.526 11.001 100.584 10.8521 100.699 10.7362C100.814 10.6204 100.962 10.5624 101.143 10.5624H103.81C103.974 10.5624 104.114 10.6204 104.23 10.7362C104.345 10.8521 104.402 11.001 104.402 11.1831V16.769C104.847 16.2394 105.39 15.8174 106.032 15.5029C106.674 15.1884 107.447 15.0312 108.353 15.0312C109.324 15.0312 110.179 15.2546 110.92 15.7015C111.677 16.1318 112.27 16.769 112.698 17.6131C113.126 18.4407 113.34 19.4503 113.34 20.642V27.5685C113.34 27.7506 113.282 27.8995 113.167 28.0154C113.052 28.1312 112.903 28.1892 112.722 28.1892H110.031C109.867 28.1892 109.727 28.1312 109.612 28.0154C109.496 27.8995 109.439 27.7506 109.439 27.5685V20.7909C109.439 19.9137 109.225 19.2351 108.797 18.7551C108.369 18.2586 107.76 18.0104 106.97 18.0104C106.196 18.0104 105.571 18.2586 105.094 18.7551C104.633 19.2351 104.402 19.9137 104.402 20.7909V27.5685C104.402 27.7506 104.345 27.8995 104.23 28.0154C104.114 28.1312 103.974 28.1892 103.81 28.1892H101.143Z" fill="#212337"/>
<path d="M121.644 28.1892C121.463 28.1892 121.315 28.1312 121.2 28.0154C121.085 27.8995 121.027 27.7506 121.027 27.5685V11.4314C121.027 11.2493 121.085 11.1003 121.2 10.9845C121.315 10.8686 121.463 10.8107 121.644 10.8107H124.335C124.516 10.8107 124.664 10.8686 124.78 10.9845C124.895 11.1003 124.952 11.2493 124.952 11.4314V17.638H131.643V11.4314C131.643 11.2493 131.701 11.1003 131.816 10.9845C131.931 10.8686 132.079 10.8107 132.26 10.8107H134.951C135.132 10.8107 135.281 10.8686 135.396 10.9845C135.511 11.1003 135.569 11.2493 135.569 11.4314V27.5685C135.569 27.7506 135.511 27.8995 135.396 28.0154C135.281 28.1312 135.132 28.1892 134.951 28.1892H132.26C132.079 28.1892 131.931 28.1312 131.816 28.0154C131.701 27.8995 131.643 27.7506 131.643 27.5685V21.1633H124.952V27.5685C124.952 27.7506 124.895 27.8995 124.78 28.0154C124.664 28.1312 124.516 28.1892 124.335 28.1892H121.644Z" fill="#212337"/>
<path d="M142.242 28.4374C141.37 28.4374 140.588 28.2719 139.897 27.9409C139.205 27.5933 138.654 27.1299 138.242 26.5506C137.831 25.9713 137.625 25.3259 137.625 24.6142C137.625 23.4391 138.094 22.5122 139.033 21.8336C139.987 21.155 141.238 20.6916 142.785 20.4433L146.019 19.9716V19.5248C146.019 18.8793 145.871 18.3828 145.575 18.0352C145.279 17.6876 144.76 17.5138 144.02 17.5138C143.476 17.5138 143.04 17.6214 142.711 17.8366C142.382 18.0517 142.127 18.3331 141.946 18.6807C141.814 18.8958 141.625 19.0034 141.378 19.0034H139.033C138.851 19.0034 138.712 18.9538 138.613 18.8545C138.514 18.7386 138.473 18.6062 138.489 18.4572C138.489 18.1759 138.596 17.8448 138.81 17.4642C139.024 17.0835 139.353 16.7111 139.798 16.347C140.242 15.9663 140.81 15.6518 141.501 15.4036C142.193 15.1553 143.04 15.0312 144.044 15.0312C145.081 15.0312 145.97 15.1553 146.711 15.4036C147.451 15.6518 148.044 15.9994 148.488 16.4463C148.933 16.8932 149.262 17.4145 149.476 18.0104C149.69 18.5896 149.797 19.2186 149.797 19.8972V27.5685C149.797 27.7506 149.739 27.8995 149.624 28.0154C149.509 28.1312 149.361 28.1892 149.18 28.1892H146.76C146.595 28.1892 146.456 28.1312 146.34 28.0154C146.225 27.8995 146.168 27.7506 146.168 27.5685V26.6499C145.954 26.9644 145.666 27.2623 145.303 27.5437C144.941 27.8085 144.505 28.0237 143.995 28.1892C143.501 28.3547 142.917 28.4374 142.242 28.4374ZM143.23 25.8555C143.773 25.8555 144.258 25.7396 144.686 25.5079C145.114 25.2762 145.452 24.9204 145.698 24.4404C145.945 23.9604 146.069 23.3563 146.069 22.6281V22.206L143.773 22.5784C142.884 22.7274 142.234 22.9508 141.822 23.2487C141.411 23.5466 141.205 23.9108 141.205 24.3411C141.205 24.6556 141.296 24.9286 141.477 25.1604C141.674 25.3921 141.929 25.5659 142.242 25.6817C142.555 25.7976 142.884 25.8555 143.23 25.8555Z" fill="#212337"/>
<path d="M152.885 28.1892C152.72 28.1892 152.58 28.1312 152.465 28.0154C152.35 27.8995 152.292 27.7506 152.292 27.5685V15.9001C152.292 15.7346 152.35 15.5939 152.465 15.4781C152.58 15.3457 152.72 15.2795 152.885 15.2795H155.304C155.469 15.2795 155.609 15.3457 155.724 15.4781C155.856 15.5939 155.921 15.7346 155.921 15.9001V16.8932C156.333 16.3801 156.835 15.9829 157.427 15.7015C158.036 15.4201 158.736 15.2795 159.526 15.2795H160.588C160.752 15.2795 160.892 15.3374 161.007 15.4532C161.122 15.5691 161.18 15.7181 161.18 15.9001V18.0352C161.18 18.2172 161.122 18.3662 161.007 18.4821C160.892 18.5979 160.752 18.6558 160.588 18.6558H158.415C157.691 18.6558 157.123 18.8627 156.711 19.2765C156.3 19.6737 156.094 20.2447 156.094 20.9895V27.5685C156.094 27.7506 156.037 27.8995 155.921 28.0154C155.806 28.1312 155.658 28.1892 155.477 28.1892H152.885Z" fill="#212337"/>
<path d="M167.07 28.1892C166.823 28.1892 166.634 28.1312 166.502 28.0154C166.387 27.883 166.288 27.734 166.206 27.5685L161.565 16.0491C161.532 15.9829 161.515 15.9084 161.515 15.8256C161.515 15.6767 161.564 15.5525 161.663 15.4532C161.778 15.3374 161.91 15.2795 162.058 15.2795H164.453C164.667 15.2795 164.823 15.3374 164.922 15.4532C165.037 15.5691 165.111 15.6767 165.144 15.776L168.181 23.9687L171.218 15.776C171.267 15.6767 171.341 15.5691 171.44 15.4532C171.555 15.3374 171.712 15.2795 171.909 15.2795H174.304C174.452 15.2795 174.575 15.3374 174.674 15.4532C174.789 15.5525 174.847 15.6767 174.847 15.8256C174.847 15.9084 174.839 15.9829 174.822 16.0491L170.156 27.5685C170.09 27.734 169.992 27.883 169.86 28.0154C169.728 28.1312 169.539 28.1892 169.292 28.1892H167.07Z" fill="#212337"/>
<path d="M181.697 28.4374C179.804 28.4374 178.298 27.9078 177.179 26.8485C176.076 25.7893 175.492 24.2501 175.426 22.2308C175.426 22.0984 175.426 21.9246 175.426 21.7095C175.426 21.4778 175.426 21.2957 175.426 21.1633C175.492 19.8889 175.78 18.7965 176.29 17.8862C176.8 16.9594 177.516 16.256 178.438 15.776C179.36 15.2795 180.438 15.0312 181.672 15.0312C183.055 15.0312 184.207 15.3208 185.129 15.9001C186.067 16.4628 186.766 17.2407 187.227 18.2338C187.704 19.2103 187.943 20.3358 187.943 21.6102V22.1812C187.943 22.3467 187.877 22.4874 187.746 22.6032C187.63 22.7191 187.49 22.777 187.326 22.777H179.253C179.253 22.7936 179.253 22.8267 179.253 22.8763C179.253 22.9094 179.253 22.9425 179.253 22.9756C179.269 23.5053 179.368 23.9935 179.549 24.4404C179.746 24.8707 180.018 25.2183 180.364 25.4831C180.726 25.7479 181.154 25.8803 181.648 25.8803C182.059 25.8803 182.396 25.8224 182.66 25.7065C182.923 25.5907 183.137 25.45 183.302 25.2845C183.483 25.119 183.614 24.9783 183.697 24.8624C183.845 24.6969 183.96 24.5976 184.042 24.5645C184.141 24.5149 184.289 24.49 184.487 24.49H187.054C187.219 24.49 187.351 24.5397 187.449 24.639C187.565 24.7218 187.614 24.8459 187.597 25.0114C187.581 25.2762 187.441 25.6072 187.178 26.0045C186.931 26.3851 186.561 26.7658 186.067 27.1465C185.573 27.5106 184.956 27.8168 184.215 28.065C183.491 28.3133 182.652 28.4374 181.697 28.4374ZM179.253 20.5178H184.092V20.4682C184.092 19.8723 183.993 19.3593 183.795 18.9289C183.614 18.4821 183.343 18.1345 182.981 17.8862C182.619 17.638 182.182 17.5138 181.672 17.5138C181.162 17.5138 180.726 17.638 180.364 17.8862C180.002 18.1345 179.722 18.4821 179.524 18.9289C179.343 19.3593 179.253 19.8723 179.253 20.4682V20.5178Z" fill="#212337"/>
<path d="M194.978 28.4374C193.958 28.4374 193.077 28.3216 192.337 28.0899C191.613 27.8416 191.02 27.5437 190.559 27.1961C190.115 26.8486 189.777 26.501 189.547 26.1534C189.333 25.7893 189.218 25.4831 189.201 25.2348C189.185 25.0528 189.242 24.9038 189.374 24.788C189.506 24.6721 189.637 24.6142 189.769 24.6142H192.164C192.213 24.6142 192.263 24.6224 192.312 24.639C192.361 24.6556 192.411 24.6969 192.46 24.7631C192.674 24.9121 192.896 25.0859 193.127 25.2845C193.357 25.4665 193.62 25.6238 193.917 25.7562C194.229 25.8886 194.616 25.9548 195.077 25.9548C195.62 25.9548 196.081 25.8472 196.46 25.6321C196.838 25.4003 197.028 25.0776 197.028 24.6638C197.028 24.3659 196.937 24.1176 196.756 23.919C196.591 23.7204 196.27 23.5384 195.793 23.3729C195.316 23.2073 194.608 23.0253 193.67 22.8267C192.781 22.6281 192.024 22.3632 191.399 22.0322C190.773 21.7012 190.304 21.2874 189.991 20.7909C189.679 20.2778 189.522 19.6654 189.522 18.9538C189.522 18.3083 189.72 17.6876 190.115 17.0918C190.526 16.4959 191.127 16.0077 191.917 15.627C192.707 15.2298 193.695 15.0312 194.88 15.0312C195.785 15.0312 196.575 15.147 197.25 15.3788C197.941 15.5939 198.517 15.8753 198.978 16.2229C199.439 16.5539 199.784 16.9014 200.015 17.2656C200.262 17.6131 200.393 17.9193 200.41 18.1841C200.426 18.3496 200.377 18.4903 200.262 18.6062C200.147 18.722 200.015 18.78 199.867 18.78H197.669C197.587 18.78 197.513 18.7717 197.447 18.7551C197.381 18.722 197.324 18.6807 197.274 18.631C197.077 18.4986 196.871 18.3496 196.657 18.1841C196.46 18.0021 196.221 17.8448 195.941 17.7124C195.661 17.58 195.299 17.5138 194.855 17.5138C194.312 17.5138 193.892 17.638 193.596 17.8862C193.316 18.1179 193.176 18.4159 193.176 18.78C193.176 19.0117 193.25 19.2268 193.398 19.4255C193.546 19.6241 193.851 19.8061 194.312 19.9716C194.773 20.1371 195.472 20.3109 196.41 20.493C197.53 20.6916 198.418 20.9895 199.077 21.3867C199.735 21.784 200.204 22.2474 200.484 22.777C200.78 23.2901 200.928 23.8446 200.928 24.4404C200.928 25.2183 200.698 25.9134 200.237 26.5258C199.776 27.1216 199.101 27.5933 198.213 27.9409C197.34 28.2719 196.262 28.4374 194.978 28.4374Z" fill="#212337"/>
<path d="M208.928 28.1892C207.908 28.1892 207.036 28.0237 206.311 27.6926C205.587 27.3451 205.036 26.8154 204.657 26.1038C204.295 25.3921 204.114 24.4983 204.114 23.4225V18.209H202.188C202.007 18.209 201.859 18.151 201.744 18.0352C201.629 17.9193 201.571 17.7704 201.571 17.5883V15.9001C201.571 15.7181 201.629 15.5691 201.744 15.4532C201.859 15.3374 202.007 15.2795 202.188 15.2795H204.114V11.1831C204.114 11.001 204.172 10.8521 204.287 10.7362C204.419 10.6204 204.567 10.5624 204.731 10.5624H207.151C207.332 10.5624 207.48 10.6204 207.595 10.7362C207.71 10.8521 207.768 11.001 207.768 11.1831V15.2795H210.854C211.019 15.2795 211.159 15.3374 211.274 15.4532C211.389 15.5691 211.447 15.7181 211.447 15.9001V17.5883C211.447 17.7704 211.389 17.9193 211.274 18.0352C211.159 18.151 211.019 18.209 210.854 18.209H207.768V23.1246C207.768 23.7535 207.875 24.2501 208.089 24.6142C208.319 24.9617 208.714 25.1355 209.274 25.1355H211.076C211.241 25.1355 211.381 25.1935 211.496 25.3093C211.611 25.4252 211.669 25.5659 211.669 25.7314V27.5685C211.669 27.7506 211.611 27.8995 211.496 28.0154C211.381 28.1312 211.241 28.1892 211.076 28.1892H208.928Z" fill="#212337"/>
<path d="M218.39 28.4374C217.37 28.4374 216.489 28.3216 215.748 28.0899C215.024 27.8416 214.432 27.5437 213.971 27.1961C213.526 26.8486 213.189 26.501 212.959 26.1534C212.745 25.7893 212.629 25.4831 212.613 25.2348C212.596 25.0528 212.654 24.9038 212.786 24.788C212.917 24.6721 213.049 24.6142 213.181 24.6142H215.576C215.625 24.6142 215.674 24.6224 215.724 24.639C215.773 24.6556 215.822 24.6969 215.872 24.7631C216.086 24.9121 216.308 25.0859 216.538 25.2845C216.769 25.4665 217.032 25.6238 217.328 25.7562C217.641 25.8886 218.028 25.9548 218.489 25.9548C219.032 25.9548 219.493 25.8472 219.871 25.6321C220.25 25.4003 220.439 25.0776 220.439 24.6638C220.439 24.3659 220.349 24.1176 220.168 23.919C220.003 23.7204 219.682 23.5384 219.205 23.3729C218.728 23.2073 218.02 23.0253 217.082 22.8267C216.193 22.6281 215.436 22.3632 214.81 22.0322C214.185 21.7012 213.716 21.2874 213.403 20.7909C213.09 20.2778 212.934 19.6654 212.934 18.9538C212.934 18.3083 213.131 17.6876 213.526 17.0918C213.938 16.4959 214.539 16.0077 215.329 15.627C216.119 15.2298 217.106 15.0312 218.291 15.0312C219.197 15.0312 219.987 15.147 220.661 15.3788C221.353 15.5939 221.929 15.8753 222.39 16.2229C222.851 16.5539 223.196 16.9014 223.427 17.2656C223.673 17.6131 223.805 17.9193 223.822 18.1841C223.838 18.3496 223.789 18.4903 223.673 18.6062C223.558 18.722 223.427 18.78 223.278 18.78H221.081C220.999 18.78 220.925 18.7717 220.859 18.7551C220.793 18.722 220.736 18.6807 220.686 18.631C220.489 18.4986 220.283 18.3496 220.069 18.1841C219.871 18.0021 219.633 17.8448 219.353 17.7124C219.073 17.58 218.711 17.5138 218.267 17.5138C217.723 17.5138 217.304 17.638 217.008 17.8862C216.728 18.1179 216.588 18.4159 216.588 18.78C216.588 19.0117 216.662 19.2268 216.81 19.4255C216.958 19.6241 217.263 19.8061 217.724 19.9716C218.184 20.1371 218.884 20.3109 219.822 20.493C220.941 20.6916 221.83 20.9895 222.488 21.3867C223.147 21.784 223.616 22.2474 223.896 22.777C224.192 23.2901 224.34 23.8446 224.34 24.4404C224.34 25.2183 224.11 25.9134 223.649 26.5258C223.188 27.1216 222.513 27.5933 221.624 27.9409C220.752 28.2719 219.674 28.4374 218.39 28.4374Z" fill="#212337"/>
</svg>
