<svg width="71" height="49" viewBox="0 0 71 49" fill="none" xmlns="http://www.w3.org/2000/svg">
<rect x="0.930883" y="1.13254" width="68.6897" height="47.1724" rx="2.89655" fill="white" stroke="#F3F3F3" stroke-width="0.827586"/>
<path fill-rule="evenodd" clip-rule="evenodd" d="M32.2056 25.0263L32.5083 23.0961L31.8341 23.0803H28.6147L30.8521 8.83691C30.859 8.79378 30.8816 8.75374 30.9145 8.72526C30.9475 8.69678 30.9897 8.68115 31.0338 8.68115H36.4621C38.2643 8.68115 39.5079 9.05761 40.1572 9.80076C40.4616 10.1494 40.6555 10.5138 40.7493 10.9147C40.8477 11.3354 40.8493 11.838 40.7534 12.4511L40.7464 12.4957V12.8886L41.0508 13.0618C41.3071 13.1983 41.5109 13.3546 41.6671 13.5335C41.9275 13.8316 42.0959 14.2105 42.167 14.6596C42.2406 15.1215 42.2163 15.6713 42.0959 16.2937C41.957 17.0095 41.7325 17.633 41.4292 18.1431C41.1503 18.6131 40.795 19.0031 40.3731 19.3052C39.9703 19.5923 39.4917 19.8102 38.9506 19.9497C38.4262 20.0867 37.8284 20.1559 37.1727 20.1559H36.7503C36.4483 20.1559 36.1549 20.2651 35.9245 20.4609C35.6935 20.6608 35.5408 20.9339 35.494 21.2325L35.4621 21.4064L34.9273 24.8085L34.9031 24.9333C34.8966 24.9729 34.8856 24.9926 34.8694 25.0059C34.855 25.0181 34.8342 25.0263 34.814 25.0263H32.2056Z" fill="#28356A"/>
<path fill-rule="evenodd" clip-rule="evenodd" d="M41.3394 12.541C41.3233 12.645 41.3047 12.7513 41.2839 12.8605C40.5681 16.5509 38.1189 17.8258 34.991 17.8258H33.3984C33.0158 17.8258 32.6934 18.1046 32.6339 18.4835L31.5875 25.1476C31.5488 25.3964 31.7397 25.6206 31.9897 25.6206H34.8145C35.1489 25.6206 35.4331 25.3766 35.4857 25.0454L35.5135 24.9013L36.0453 21.5126L36.0795 21.3267C36.1315 20.9943 36.4164 20.7502 36.7508 20.7502H37.1732C39.91 20.7502 42.0524 19.6347 42.6786 16.4062C42.9401 15.0576 42.8048 13.9315 42.1126 13.1395C41.9032 12.9007 41.6433 12.7025 41.3394 12.541Z" fill="#298FC2"/>
<path fill-rule="evenodd" clip-rule="evenodd" d="M40.5905 12.2414C40.4811 12.2093 40.3683 12.1803 40.2525 12.1541C40.1361 12.1286 40.017 12.106 39.8943 12.0861C39.4649 12.0164 38.9943 11.9834 38.4903 11.9834H34.2357C34.1308 11.9834 34.0313 12.0072 33.9423 12.0501C33.746 12.1449 33.6002 12.3314 33.5649 12.5597L32.6597 18.3158L32.6338 18.4836C32.6933 18.1047 33.0157 17.8259 33.3983 17.8259H34.9909C38.1188 17.8259 40.568 16.5504 41.2838 12.8607C41.3052 12.7515 41.3232 12.6452 41.3393 12.5412C41.1582 12.4447 40.9621 12.3621 40.7508 12.2918C40.6986 12.2744 40.6448 12.2576 40.5905 12.2414Z" fill="#22284F"/>
<path fill-rule="evenodd" clip-rule="evenodd" d="M33.5652 12.559C33.6005 12.3307 33.7463 12.1441 33.9426 12.0501C34.0322 12.0069 34.1311 11.9832 34.236 11.9832H38.4907C38.9946 11.9832 39.4652 12.0164 39.8946 12.086C40.0173 12.1057 40.1365 12.1285 40.2529 12.1541C40.3686 12.1801 40.4814 12.2092 40.5908 12.2411C40.6451 12.2574 40.699 12.2743 40.7516 12.2911C40.9629 12.3614 41.1592 12.4446 41.3402 12.5405C41.5532 11.1767 41.3384 10.2482 40.6041 9.40737C39.7944 8.4816 38.3333 8.08545 36.4634 8.08545H31.035C30.6531 8.08545 30.3272 8.36425 30.2682 8.7438L28.0073 23.1337C27.9627 23.4184 28.1813 23.6752 28.4673 23.6752H31.8186L33.5652 12.559Z" fill="#28356A"/>
<path fill-rule="evenodd" clip-rule="evenodd" d="M16.2117 28.9438H12.2539C11.983 28.9438 11.7527 29.1414 11.7104 29.41L10.1096 39.5999C10.0778 39.8011 10.233 39.9822 10.4361 39.9822H12.3255C12.5964 39.9822 12.8267 39.7848 12.8691 39.5158L13.3007 36.7673C13.3424 36.4983 13.5732 36.3007 13.8436 36.3007H15.0965C17.7036 36.3007 19.2082 35.0339 19.6013 32.5239C19.7783 31.4256 19.6087 30.5628 19.0965 29.9585C18.534 29.2949 17.5363 28.9438 16.2117 28.9438ZM16.6681 32.6652C16.4517 34.0911 15.3666 34.0911 14.3175 34.0911H13.7202L14.1392 31.4281C14.1642 31.2671 14.3029 31.1486 14.465 31.1486H14.7388C15.4535 31.1486 16.1277 31.1486 16.476 31.5576C16.6839 31.8016 16.7474 32.1642 16.6681 32.6652Z" fill="#28356A"/>
<path fill-rule="evenodd" clip-rule="evenodd" d="M28.144 32.5423H26.2487C26.0872 32.5423 25.9477 32.6608 25.9229 32.8218L25.8389 33.354L25.7065 33.1611C25.2962 32.5631 24.3811 32.3633 23.468 32.3633C21.3735 32.3633 19.5847 33.956 19.2364 36.1902C19.0553 37.3046 19.3127 38.3703 19.9425 39.1135C20.52 39.7968 21.3464 40.0816 22.3296 40.0816C24.0172 40.0816 24.9529 38.9921 24.9529 38.9921L24.8684 39.5209C24.8366 39.723 24.9918 39.9043 25.1937 39.9043H26.9008C27.1723 39.9043 27.4016 39.7068 27.4443 39.4377L28.4687 32.9246C28.5011 32.7241 28.3464 32.5423 28.144 32.5423ZM25.5023 36.2461C25.3194 37.3332 24.4601 38.063 23.364 38.063C22.8137 38.063 22.3739 37.8857 22.0913 37.55C21.8112 37.2165 21.7049 36.7417 21.7939 36.2129C21.9647 35.1351 22.8385 34.3814 23.9179 34.3814C24.4561 34.3814 24.8936 34.5611 25.1818 34.8996C25.4705 35.2419 25.5851 35.7196 25.5023 36.2461Z" fill="#28356A"/>
<path fill-rule="evenodd" clip-rule="evenodd" d="M38.0922 32.7056H36.1875C36.0058 32.7056 35.8351 32.7962 35.7322 32.9479L33.1053 36.8328L31.9919 33.0994C31.9218 32.8659 31.7072 32.7056 31.4641 32.7056H29.5926C29.365 32.7056 29.2071 32.9287 29.2794 33.1437L31.3773 39.3249L29.4051 42.1205C29.2499 42.3407 29.4062 42.6434 29.6741 42.6434H31.5764C31.757 42.6434 31.9259 42.555 32.0283 42.4064L38.3629 33.2256C38.5147 33.006 38.3589 32.7056 38.0922 32.7056Z" fill="#28356A"/>
<path fill-rule="evenodd" clip-rule="evenodd" d="M44.4411 28.9438H40.4827C40.2125 28.9438 39.9822 29.1414 39.9398 29.41L38.3391 39.5999C38.3073 39.8011 38.4625 39.9822 38.6644 39.9822H40.6957C40.8843 39.9822 41.0457 39.8441 41.0752 39.6558L41.5296 36.7673C41.5712 36.4983 41.8022 36.3007 42.0725 36.3007H43.3248C45.9324 36.3007 47.4365 35.0339 47.8301 32.5239C48.0078 31.4256 47.8371 30.5628 47.3249 29.9585C46.7628 29.2949 45.7658 28.9438 44.4411 28.9438ZM44.8976 32.6652C44.6817 34.0911 43.5966 34.0911 42.5468 34.0911H41.9503L42.3698 31.4281C42.3946 31.2671 42.5324 31.1486 42.695 31.1486H42.9688C43.6828 31.1486 44.3576 31.1486 44.706 31.5576C44.9138 31.8016 44.9769 32.1642 44.8976 32.6652Z" fill="#298FC2"/>
<path fill-rule="evenodd" clip-rule="evenodd" d="M56.3704 32.5423H54.4763C54.3137 32.5423 54.1754 32.6608 54.1511 32.8218L54.0671 33.354L53.9341 33.1611C53.5238 32.5631 52.6094 32.3633 51.6961 32.3633C49.6017 32.3633 47.8136 33.956 47.4652 36.1902C47.2847 37.3046 47.541 38.3703 48.1706 39.1135C48.7494 39.7968 49.5745 40.0816 50.5578 40.0816C52.2453 40.0816 53.1811 38.9921 53.1811 38.9921L53.0966 39.5209C53.0649 39.723 53.2198 39.9043 53.4231 39.9043H55.1297C55.3999 39.9043 55.6303 39.7068 55.6726 39.4377L56.6974 32.9246C56.7287 32.7241 56.5735 32.5423 56.3704 32.5423ZM53.7283 36.2461C53.5466 37.3332 52.686 38.063 51.5899 38.063C51.0407 38.063 50.5998 37.8857 50.3172 37.55C50.0373 37.2165 49.9319 36.7417 50.0198 36.2129C50.1918 35.1351 51.0644 34.3814 52.1438 34.3814C52.682 34.3814 53.1195 34.5611 53.4077 34.8996C53.6975 35.2419 53.8121 35.7196 53.7283 36.2461Z" fill="#298FC2"/>
<path fill-rule="evenodd" clip-rule="evenodd" d="M58.4469 29.224L56.8225 39.6004C56.7907 39.8016 56.9457 39.9827 57.1477 39.9827H58.7808C59.0524 39.9827 59.2826 39.7853 59.3242 39.5163L60.9261 29.3268C60.958 29.1256 60.8029 28.9438 60.6009 28.9438H58.7723C58.6108 28.9443 58.4719 29.063 58.4469 29.224Z" fill="#298FC2"/>
</svg>
