<svg width="70" height="49" viewBox="0 0 70 49" fill="none" xmlns="http://www.w3.org/2000/svg">
<rect x="0.413793" y="1.13254" width="68.6897" height="47.1724" rx="2.89655" fill="white" stroke="#F3F3F3" stroke-width="0.827586"/>
<path d="M30.8656 33.6387H26.2373L29.1322 16.8379H33.7602L30.8656 33.6387Z" fill="#15195A"/>
<path d="M47.6428 17.2485C46.7299 16.9085 45.282 16.5332 43.4916 16.5332C38.9211 16.5332 35.7025 18.8209 35.6828 22.0915C35.6448 24.5046 37.9872 25.8449 39.7391 26.6495C41.5297 27.4717 42.1384 28.0083 42.1384 28.7412C42.1201 29.8667 40.6914 30.3855 39.3589 30.3855C37.5111 30.3855 36.521 30.118 35.0164 29.4918L34.4069 29.2234L33.7593 32.9948C34.8448 33.459 36.8447 33.8709 38.9211 33.889C43.7774 33.889 46.939 31.6367 46.9764 28.1513C46.9949 26.2388 45.7581 24.7733 43.0915 23.5758C41.4727 22.807 40.4814 22.2887 40.4814 21.5021C40.5004 20.7871 41.3199 20.0547 43.1472 20.0547C44.6518 20.0189 45.7573 20.3583 46.5948 20.698L47.0134 20.8764L47.6428 17.2485Z" fill="#15195A"/>
<path fill-rule="evenodd" clip-rule="evenodd" d="M55.928 16.8379H59.508L63.2418 33.6385H58.9565C58.9565 33.6385 58.5371 31.7081 58.4043 31.1183H52.4619C52.2901 31.5649 51.4906 33.6385 51.4906 33.6385H46.6343L53.509 18.2319C53.9853 17.1415 54.824 16.8379 55.928 16.8379ZM55.6429 22.9858C55.6429 22.9858 54.1763 26.7213 53.7951 27.6865H57.6421C57.4518 26.8465 56.5753 22.8249 56.5753 22.8249L56.2519 21.3773C56.1157 21.7501 55.9187 22.2626 55.7858 22.6083C55.6958 22.8426 55.6352 23.0003 55.6429 22.9858Z" fill="#15195A"/>
<path fill-rule="evenodd" clip-rule="evenodd" d="M17.8387 28.2945L22.3713 16.8379H27.2653L19.9905 33.6209H15.0962L10.9711 19.0229C9.54775 18.2417 7.92324 17.6135 6.10693 17.1776L6.18311 16.8381H13.6296C14.6389 16.8735 15.4579 17.1773 15.7244 18.2504L17.3421 25.9667C17.3425 25.9681 17.343 25.9695 17.3434 25.9709L17.8387 28.2945Z" fill="#15195A"/>
</svg>
